<svg xmlns="http://www.w3.org/2000/svg" viewBox="0 0 160 55" width="100%" height="100%">
  <g transform="translate(10, 5)">
    <!-- Outline/Shadow effect using duplicate grouped paths offset and black fill -->
    <g fill="none" stroke="#1c1b1f" stroke-width="7" stroke-linejoin="round" stroke-linecap="round">
      <!-- "حا" -->
      <path d="M 12 30 C 5 28, 8 18, 18 16 C 26 14, 30 18, 28 24 C 25 28, 16 28, 12 30 C 18 30, 28 26, 32 10 L 34 10 C 33 22, 34 30, 31 34 C 29 38, 25 40, 22 40" />
      <!-- "ج" -->
      <path d="M 38 22 C 34 18, 38 12, 48 14 C 58 16, 55 24, 46 28 C 40 31, 38 36, 42 41 C 46 46, 54 44, 58 36" />
      <!-- "ع" -->
      <path d="M 68 26 C 64 24, 66 18, 72 16 C 78 14, 80 20, 74 24 C 68 28, 66 32, 70 36 C 74 40, 80 38, 82 31" />
      <!-- "ر" -->
      <path d="M 86 28 C 88 31, 86 38, 82 42 C 78 46, 70 48, 65 47" />
      <!-- "ف" -->
      <path d="M 94 28 C 90 26, 92 20, 98 18 C 104 16, 106 22, 100 26 C 95 30, 98 34, 104 34 C 108 34, 110 31, 112 26" />
      <!-- "ة" -->
      <path d="M 120 26 C 116 24, 118 18, 124 16 C 130 14, 132 20, 126 24 C 122 28, 120 26, 120 26 Z" />
    </g>

    <!-- Foreground paths in brand orange -->
    <g fill="none" stroke="#C4622D" stroke-width="4.5" stroke-linejoin="round" stroke-linecap="round">
      <!-- "حا" -->
      <path d="M 12 30 C 5 28, 8 18, 18 16 C 26 14, 30 18, 28 24 C 25 28, 16 28, 12 30 C 18 30, 28 26, 32 10 L 34 10 C 33 22, 34 30, 31 34 C 29 38, 25 40, 22 40" />
      <!-- "ج" -->
      <path d="M 38 22 C 34 18, 38 12, 48 14 C 58 16, 55 24, 46 28 C 40 31, 38 36, 42 41 C 46 46, 54 44, 58 36" />
      <!-- "ع" -->
      <path d="M 68 26 C 64 24, 66 18, 72 16 C 78 14, 80 20, 74 24 C 68 28, 66 32, 70 36 C 74 40, 80 38, 82 31" />
      <!-- "ر" -->
      <path d="M 86 28 C 88 31, 86 38, 82 42 C 78 46, 70 48, 65 47" />
      <!-- "ف" -->
      <path d="M 94 28 C 90 26, 92 20, 98 18 C 104 16, 106 22, 100 26 C 95 30, 98 34, 104 34 C 108 34, 110 31, 112 26" />
      <!-- "ة" -->
      <path d="M 120 26 C 116 24, 118 18, 124 16 C 130 14, 132 20, 126 24 C 122 28, 120 26, 120 26 Z" />
    </g>

    <!-- Calligraphy Dots -->
    <g fill="#1c1b1f">
      <!-- Dot for "ج" -->
      <circle cx="44" cy="49" r="3.2" />
      
      <!-- Dot for "ف" -->
      <circle cx="97" cy="12" r="2.8" />
      
      <!-- Two dots for "ة" -->
      <circle cx="121" cy="10" r="2.2" />
      <circle cx="127" cy="10" r="2.2" />
    </g>
  </g>
</svg>
